<?xml version="1.0" standalone="no"?>
<!DOCTYPE svg PUBLIC "-//W3C//DTD SVG 20010904//EN"
 "http://www.w3.org/TR/2001/REC-SVG-20010904/DTD/svg10.dtd">
<svg version="1.0" xmlns="http://www.w3.org/2000/svg"
 width="75.000000pt" height="75.000000pt" viewBox="0 0 75.000000 75.000000"
 preserveAspectRatio="xMidYMid meet">
<metadata>
Created by potrace 1.15, written by Peter Selinger 2001-2017
</metadata>
<g transform="translate(0.000000,75.000000) scale(0.100000,-0.100000)" fill="#2698e7" stroke="none">
<path d="M202 664 c-65 -32 -116 -85 -147 -151 -21 -44 -25 -67 -25 -147 0
-80 4 -104 24 -148 37 -80 106 -144 176 -166 61 -18 161 -15 213 7 49 21 124
90 143 132 33 72 44 102 44 124 0 41 -17 28 -36 -27 -19 -58 -85 -130 -142
-153 -45 -19 -140 -19 -186 0 -48 20 -120 93 -142 142 -23 51 -24 194 -1 244
24 54 86 115 140 138 26 11 47 23 47 26 0 14 -62 2 -108 -21z"/>
<path d="M355 680 c-57 -14 -94 -36 -146 -91 -46 -48 -89 -137 -89 -185 0 -39
14 -28 33 26 43 121 171 197 285 168 129 -32 206 -135 206 -278 0 -63 -5 -85
-29 -134 -31 -62 -80 -109 -132 -128 -31 -11 -45 -28 -23 -28 15 0 102 31 114
41 6 5 23 18 37 28 27 21 79 91 83 113 1 7 8 24 15 38 19 33 19 155 2 210 -51
158 -208 254 -356 220z"/>
</g>
</svg>
